<?xml version="1.0" standalone="no"?>
<!DOCTYPE svg PUBLIC "-//W3C//DTD SVG 20010904//EN"
 "http://www.w3.org/TR/2001/REC-SVG-20010904/DTD/svg10.dtd">
<svg version="1.0" xmlns="http://www.w3.org/2000/svg"
 width="300.000000pt" height="300.000000pt" viewBox="0 0 300.000000 300.000000"
 preserveAspectRatio="xMidYMid meet">
<metadata>
Created by potrace 1.11, written by Peter Selinger 2001-2013
</metadata>
<g transform="translate(0.000000,300.000000) scale(0.100000,-0.100000)"
fill="#000000" stroke="none">
<path d="M0 1500 l0 -1500 1500 0 1500 0 0 1500 0 1500 -1500 0 -1500 0 0
-1500z m1500 1125 c0 -13 26 -15 170 -15 163 0 170 -1 170 -20 0 -18 7 -20 70
-20 56 0 70 -3 70 -15 0 -10 11 -15 35 -15 28 0 35 -4 35 -20 0 -16 7 -20 35
-20 24 0 35 -5 35 -15 0 -10 10 -15 30 -15 23 0 30 -4 30 -20 0 -16 7 -20 35
-20 24 0 35 -5 35 -15 0 -8 9 -15 20 -15 13 0 20 -7 20 -20 0 -11 7 -20 15
-20 8 0 15 -7 15 -15 0 -8 9 -15 20 -15 13 0 20 -7 20 -20 0 -11 7 -20 15 -20
8 0 15 -7 15 -15 0 -8 9 -15 20 -15 16 0 20 -7 20 -35 0 -24 5 -35 15 -35 11
0 15 -11 15 -40 0 -29 4 -40 15 -40 8 0 15 -7 15 -15 0 -8 9 -15 20 -15 18 0
20 -7 20 -55 0 -42 3 -55 15 -55 11 0 15 -12 15 -50 0 -43 3 -50 20 -50 19 0
20 -7 20 -90 0 -73 3 -90 15 -90 13 0 15 -26 15 -175 0 -149 -2 -175 -15 -175
-12 0 -15 -17 -15 -90 0 -83 -1 -90 -20 -90 -17 0 -20 -7 -20 -50 0 -38 -4
-50 -15 -50 -10 0 -15 -11 -15 -35 0 -28 -4 -35 -20 -35 -16 0 -20 -7 -20 -35
0 -24 -5 -35 -15 -35 -8 0 -15 -9 -15 -20 0 -11 -7 -20 -15 -20 -10 0 -15 -11
-15 -35 0 -28 -4 -35 -20 -35 -13 0 -20 -7 -20 -20 0 -11 -7 -20 -15 -20 -8 0
-15 -7 -15 -15 0 -8 -9 -15 -20 -15 -13 0 -20 -7 -20 -20 0 -11 -7 -20 -15
-20 -8 0 -15 -7 -15 -15 0 -8 -9 -15 -20 -15 -13 0 -20 -7 -20 -20 0 -11 -7
-20 -15 -20 -8 0 -15 -7 -15 -15 0 -10 -11 -15 -35 -15 -28 0 -35 -4 -35 -20
0 -16 -7 -20 -35 -20 -24 0 -35 -5 -35 -15 0 -10 -11 -15 -35 -15 -28 0 -35
-4 -35 -20 0 -16 -7 -20 -35 -20 -24 0 -35 -5 -35 -15 0 -12 -14 -15 -65 -15
-58 0 -65 -2 -65 -20 0 -19 -7 -20 -140 -20 -118 0 -140 -2 -140 -15 0 -13
-66 -15 -535 -15 -469 0 -535 2 -535 15 0 12 18 15 105 15 98 0 105 1 105 20
0 11 7 20 15 20 8 0 15 7 15 15 0 8 9 15 20 15 13 0 20 7 20 20 0 11 7 20 15
20 13 0 15 116 15 985 0 869 -2 985 -15 985 -8 0 -15 9 -15 20 0 13 -7 20 -20
20 -11 0 -20 7 -20 15 0 10 -11 15 -35 15 -28 0 -35 4 -35 20 0 18 -7 20 -85
20 -69 0 -85 3 -85 15 0 13 64 15 520 15 456 0 520 -2 520 -15z"/>
<path d="M1150 2520 c0 -17 -7 -20 -50 -20 l-50 0 0 -985 0 -985 50 0 c43 0
50 -3 50 -20 0 -19 7 -20 240 -20 233 0 240 1 240 20 0 18 7 20 55 20 42 0 55
3 55 15 0 11 12 15 50 15 43 0 50 3 50 20 0 11 7 20 15 20 8 0 15 7 15 15 0
10 11 15 35 15 28 0 35 4 35 20 0 13 7 20 20 20 11 0 20 7 20 15 0 8 7 15 15
15 8 0 15 9 15 20 0 13 7 20 20 20 11 0 20 7 20 15 0 8 7 15 15 15 11 0 15 11
15 40 0 33 3 40 20 40 11 0 20 7 20 15 0 8 7 15 15 15 10 0 15 11 15 35 0 24
5 35 15 35 10 0 15 11 15 35 0 28 4 35 20 35 16 0 20 7 20 35 0 24 5 35 15 35
12 0 15 14 15 70 0 63 2 70 20 70 20 0 20 7 20 285 0 278 0 285 -20 285 -18 0
-20 7 -20 70 0 56 -3 70 -15 70 -10 0 -15 11 -15 35 0 28 -4 35 -20 35 -16 0
-20 7 -20 35 0 24 -5 35 -15 35 -10 0 -15 11 -15 35 0 24 -5 35 -15 35 -10 0
-15 11 -15 35 0 28 -4 35 -20 35 -13 0 -20 7 -20 20 0 11 -7 20 -15 20 -8 0
-15 7 -15 15 0 8 -9 15 -20 15 -13 0 -20 7 -20 20 0 11 -7 20 -15 20 -8 0 -15
7 -15 15 0 8 -9 15 -20 15 -13 0 -20 7 -20 20 0 16 -7 20 -35 20 -24 0 -35 5
-35 15 0 8 -7 15 -15 15 -8 0 -15 9 -15 20 0 17 -7 20 -50 20 -38 0 -50 4 -50
15 0 12 -13 15 -55 15 -48 0 -55 2 -55 20 0 19 -7 20 -240 20 -233 0 -240 -1
-240 -20z"/>
</g>
</svg>
